<?xml version="1.0" encoding="utf-8"?>
<!-- Generator: Adobe Illustrator 16.0.0, SVG Export Plug-In . SVG Version: 6.00 Build 0)  -->
<!DOCTYPE svg PUBLIC "-//W3C//DTD SVG 1.1//EN" "http://www.w3.org/Graphics/SVG/1.1/DTD/svg11.dtd">
<svg version="1.1" id="Capa_1" xmlns="http://www.w3.org/2000/svg" xmlns:xlink="http://www.w3.org/1999/xlink" x="0px" y="0px"
	 width="282.184px" height="282.061px" viewBox="0 0 282.184 282.061" enable-background="new 0 0 282.184 282.061"
	 xml:space="preserve">
<linearGradient id="SVGID_1_" gradientUnits="userSpaceOnUse" x1="140.6963" y1="167.8521" x2="140.6963" y2="278.062" gradientTransform="matrix(1 0 0 1 -9.765625e-004 -9.765625e-004)">
	<stop  offset="0" style="stop-color:#5B5B5F"/>
	<stop  offset="1" style="stop-color:#141414"/>
</linearGradient>
<linearGradient id="SVGID_2_" gradientUnits="userSpaceOnUse" x1="-128.8413" y1="-965.8604" x2="-10.6318" y2="-965.8604" gradientTransform="matrix(0 1 -1 0 -825.1646 292.6924)">
	<stop  offset="0" style="stop-color:#5B5B5F"/>
	<stop  offset="0.2055" style="stop-color:#464648"/>
	<stop  offset="0.5227" style="stop-color:#2B2B2C"/>
	<stop  offset="0.7985" style="stop-color:#1A1A1A"/>
	<stop  offset="1" style="stop-color:#141414"/>
</linearGradient>
<path fill="url(#SVGID_1_)" stroke="url(#SVGID_2_)" stroke-width="8" stroke-linejoin="round" stroke-miterlimit="10" d="
	M192.383,215.584l-51.621-47.733l-51.754,47.733v50.547c0,6.59,5.34,11.93,11.928,11.93h79.519c6.588,0,11.929-5.34,11.929-11.93
	V215.584z"/>
<linearGradient id="SVGID_3_" gradientUnits="userSpaceOnUse" x1="141.0938" y1="-923.0957" x2="141.0938" y2="-812.8867" gradientTransform="matrix(1 0 0 -1 -9.765625e-004 -808.8867)">
	<stop  offset="0" style="stop-color:#141414"/>
	<stop  offset="1" style="stop-color:#5B5B5F"/>
</linearGradient>
<linearGradient id="SVGID_4_" gradientUnits="userSpaceOnUse" x1="-1219.7886" y1="-966.2568" x2="-1101.5796" y2="-966.2568" gradientTransform="matrix(0 -1 -1 0 -825.1646 -1101.5796)">
	<stop  offset="0" style="stop-color:#141414"/>
	<stop  offset="0.2015" style="stop-color:#1A1A1A"/>
	<stop  offset="0.4773" style="stop-color:#2B2B2C"/>
	<stop  offset="0.7945" style="stop-color:#464648"/>
	<stop  offset="1" style="stop-color:#5B5B5F"/>
</linearGradient>
<path fill="url(#SVGID_3_)" stroke="url(#SVGID_4_)" stroke-width="8" stroke-linejoin="round" stroke-miterlimit="10" d="
	M192.78,66.475l-51.62,47.734L89.405,66.475V15.928C89.405,9.34,94.746,4,101.333,4h79.519c6.588,0,11.928,5.34,11.928,11.928
	V66.475z"/>
<linearGradient id="SVGID_5_" gradientUnits="userSpaceOnUse" x1="-895.5703" y1="352.7725" x2="-998.9453" y2="352.7725" gradientTransform="matrix(0 -1 1 0 -129.6934 -806.1655)">
	<stop  offset="0" style="stop-color:#5B5B5F"/>
	<stop  offset="1" style="stop-color:#141414"/>
</linearGradient>
<linearGradient id="SVGID_6_" gradientUnits="userSpaceOnUse" x1="223.0796" y1="85.4048" x2="223.0796" y2="196.7798">
	<stop  offset="0" style="stop-color:#5B5B5F"/>
	<stop  offset="0.2055" style="stop-color:#464648"/>
	<stop  offset="0.5227" style="stop-color:#2B2B2C"/>
	<stop  offset="0.7985" style="stop-color:#1A1A1A"/>
	<stop  offset="1" style="stop-color:#141414"/>
</linearGradient>
<path fill="url(#SVGID_5_)" stroke="url(#SVGID_6_)" stroke-width="8" stroke-linejoin="round" stroke-miterlimit="10" d="
	M215.709,89.405l-47.734,51.621l47.734,51.754h50.547c6.588,0,11.928-5.34,11.928-11.927v-79.519c0-6.588-5.34-11.928-11.928-11.928
	H215.709z"/>
<linearGradient id="SVGID_7_" gradientUnits="userSpaceOnUse" x1="-895.5703" y1="-1185.3433" x2="-998.9443" y2="-1185.3433" gradientTransform="matrix(0 -1 -1 0 -1126.2388 -806.1655)">
	<stop  offset="0" style="stop-color:#5B5B5F"/>
	<stop  offset="1" style="stop-color:#141414"/>
</linearGradient>
<linearGradient id="SVGID_8_" gradientUnits="userSpaceOnUse" x1="-1315.0371" y1="85.4053" x2="-1315.0371" y2="196.7788" gradientTransform="matrix(-1 0 0 1 -1255.9326 0)">
	<stop  offset="0" style="stop-color:#5B5B5F"/>
	<stop  offset="0.2055" style="stop-color:#464648"/>
	<stop  offset="0.5227" style="stop-color:#2B2B2C"/>
	<stop  offset="0.7985" style="stop-color:#1A1A1A"/>
	<stop  offset="1" style="stop-color:#141414"/>
</linearGradient>
<path fill="url(#SVGID_7_)" stroke="url(#SVGID_8_)" stroke-width="8" stroke-linejoin="round" stroke-miterlimit="10" d="
	M66.475,89.405l47.734,51.621l-47.734,51.754H15.928C9.34,192.779,4,187.439,4,180.852v-79.519c0-6.588,5.34-11.928,11.928-11.928
	H66.475z"/>
</svg>
